<mxfile host="Electron" agent="Mozilla/5.0 (Windows NT 10.0; Win64; x64) AppleWebKit/537.36 (KHTML, like Gecko) draw.io/24.7.17 Chrome/128.0.6613.36 Electron/32.0.1 Safari/537.36" version="24.7.17">
  <diagram name="Page-1" id="J8-EorGdsk601ciVaT36">
    <mxGraphModel dx="1434" dy="836" grid="1" gridSize="10" guides="1" tooltips="1" connect="1" arrows="1" fold="1" page="1" pageScale="1" pageWidth="3300" pageHeight="4681" math="0" shadow="0">
      <root>
        <mxCell id="0" />
        <mxCell id="1" parent="0" />
        <mxCell id="sNH1LSWrfmfTtFodC7ht-10" style="edgeStyle=orthogonalEdgeStyle;rounded=0;orthogonalLoop=1;jettySize=auto;html=1;entryX=0.5;entryY=0;entryDx=0;entryDy=0;" edge="1" parent="1" source="sNH1LSWrfmfTtFodC7ht-1" target="sNH1LSWrfmfTtFodC7ht-9">
          <mxGeometry relative="1" as="geometry" />
        </mxCell>
        <mxCell id="sNH1LSWrfmfTtFodC7ht-1" value="&lt;font style=&quot;font-size: 24px;&quot;&gt;Bắt đầu&lt;/font&gt;" style="ellipse;whiteSpace=wrap;html=1;" vertex="1" parent="1">
          <mxGeometry x="650" y="70" width="190" height="130" as="geometry" />
        </mxCell>
        <mxCell id="sNH1LSWrfmfTtFodC7ht-12" value="" style="edgeStyle=orthogonalEdgeStyle;rounded=0;orthogonalLoop=1;jettySize=auto;html=1;" edge="1" parent="1" source="sNH1LSWrfmfTtFodC7ht-2" target="sNH1LSWrfmfTtFodC7ht-8">
          <mxGeometry relative="1" as="geometry" />
        </mxCell>
        <mxCell id="sNH1LSWrfmfTtFodC7ht-2" value="&lt;font style=&quot;font-size: 24px;&quot;&gt;Nhập giá trị X&lt;/font&gt;" style="shape=parallelogram;perimeter=parallelogramPerimeter;whiteSpace=wrap;html=1;fixedSize=1;" vertex="1" parent="1">
          <mxGeometry x="663.75" y="430" width="185" height="110" as="geometry" />
        </mxCell>
        <mxCell id="sNH1LSWrfmfTtFodC7ht-7" style="edgeStyle=orthogonalEdgeStyle;rounded=0;orthogonalLoop=1;jettySize=auto;html=1;entryX=0.5;entryY=0;entryDx=0;entryDy=0;" edge="1" parent="1" source="sNH1LSWrfmfTtFodC7ht-4" target="sNH1LSWrfmfTtFodC7ht-6">
          <mxGeometry relative="1" as="geometry" />
        </mxCell>
        <mxCell id="sNH1LSWrfmfTtFodC7ht-4" value="&lt;font style=&quot;font-size: 24px;&quot;&gt;Nếu X chia hết cho i dư 0&lt;/font&gt;" style="rhombus;whiteSpace=wrap;html=1;" vertex="1" parent="1">
          <mxGeometry x="565.62" y="840" width="381.25" height="190" as="geometry" />
        </mxCell>
        <mxCell id="sNH1LSWrfmfTtFodC7ht-17" value="" style="edgeStyle=orthogonalEdgeStyle;rounded=0;orthogonalLoop=1;jettySize=auto;html=1;" edge="1" parent="1" source="sNH1LSWrfmfTtFodC7ht-6" target="sNH1LSWrfmfTtFodC7ht-16">
          <mxGeometry relative="1" as="geometry" />
        </mxCell>
        <mxCell id="sNH1LSWrfmfTtFodC7ht-6" value="&lt;font style=&quot;font-size: 24px;&quot;&gt;In ra tất cả các i thoả mãn ( là các ước của X )&amp;nbsp;&lt;/font&gt;" style="shape=parallelogram;perimeter=parallelogramPerimeter;whiteSpace=wrap;html=1;fixedSize=1;" vertex="1" parent="1">
          <mxGeometry x="468.44" y="1110" width="575.63" height="150" as="geometry" />
        </mxCell>
        <mxCell id="sNH1LSWrfmfTtFodC7ht-14" value="" style="edgeStyle=orthogonalEdgeStyle;rounded=0;orthogonalLoop=1;jettySize=auto;html=1;" edge="1" parent="1" source="sNH1LSWrfmfTtFodC7ht-8" target="sNH1LSWrfmfTtFodC7ht-4">
          <mxGeometry relative="1" as="geometry" />
        </mxCell>
        <mxCell id="sNH1LSWrfmfTtFodC7ht-8" value="&lt;font style=&quot;font-size: 24px;&quot;&gt;Dùng vòng lặp for, khai báo biến i bắt đầu là 0 và lặp lại đến khi i nhỏ hơn hoặc bằng X&lt;/font&gt;" style="rounded=0;whiteSpace=wrap;html=1;" vertex="1" parent="1">
          <mxGeometry x="541.26" y="610" width="430" height="170" as="geometry" />
        </mxCell>
        <mxCell id="sNH1LSWrfmfTtFodC7ht-9" value="&lt;font style=&quot;font-size: 24px;&quot;&gt;Khai báo biến X&lt;/font&gt;" style="rounded=0;whiteSpace=wrap;html=1;" vertex="1" parent="1">
          <mxGeometry x="627.5" y="260" width="235" height="100" as="geometry" />
        </mxCell>
        <mxCell id="sNH1LSWrfmfTtFodC7ht-11" style="edgeStyle=orthogonalEdgeStyle;rounded=0;orthogonalLoop=1;jettySize=auto;html=1;exitX=0.5;exitY=1;exitDx=0;exitDy=0;entryX=0.439;entryY=0.009;entryDx=0;entryDy=0;entryPerimeter=0;" edge="1" parent="1" source="sNH1LSWrfmfTtFodC7ht-9" target="sNH1LSWrfmfTtFodC7ht-2">
          <mxGeometry relative="1" as="geometry" />
        </mxCell>
        <mxCell id="sNH1LSWrfmfTtFodC7ht-16" value="&lt;font style=&quot;font-size: 24px;&quot;&gt;Kết thúc&lt;/font&gt;" style="ellipse;whiteSpace=wrap;html=1;" vertex="1" parent="1">
          <mxGeometry x="661.24" y="1370" width="190" height="130" as="geometry" />
        </mxCell>
      </root>
    </mxGraphModel>
  </diagram>
</mxfile>
